<svg id="Capa_1" enable-background="new 0 0 488.471 488.471" height="512" viewBox="0 0 488.471 488.471" width="512" xmlns="http://www.w3.org/2000/svg"><path id="path-1_52_" d="m228.971 0h30.529v61.059h-30.529z" transform="translate(7.5)"/><path id="path-1_51_" d="m228.971 427.412h30.529v61.059h-30.529z" transform="translate(7.5 14)"/><path id="path-2_31_" d="m427.412 228.971h61.059v30.529h-61.059z" transform="translate(14 7.5)"/><path id="path-2_30_" d="m0 228.971h61.059v30.529h-61.059z" transform="translate(0 7.5)"/><path d="m189.11 321.882h61.059v30.529h-61.059z" transform="matrix(.707 -.707 .707 .707 1.636 10.051)"/><path d="m-234.198 331.762h61.058v30.529h-61.058z" transform="matrix(.707 -.707 .707 .707 -8.264 5.95)"/><path d="m-2.313 523.213h30.529v61.058h-30.529z" transform="matrix(.707 -.707 .707 .707 -5.364 12.95)"/><path d="m-12.211 99.901h30.529v61.059h-30.529z" transform="matrix(.707 -.707 .707 .707 -1.263 3.05)"/><path d="m352.173 136.297c59.612 59.612 59.612 156.263 0 215.876s-156.263 59.612-215.876 0-59.612-156.263 0-215.876 156.264-59.612 215.876 0"/></svg>