<svg id="Capa_1" enable-background="new 0 0 499.739 499.739" height="512" viewBox="0 0 499.739 499.739" width="512" xmlns="http://www.w3.org/2000/svg"><g><path d="m290.499 394.775v-53.6c75.855-18.327 132.374-86.768 132.374-168.172-.001-95.395-77.609-173.003-173.003-173.003-23.846 0-46.944 4.764-68.655 14.16-3.801 1.645-5.549 6.06-3.904 9.862 1.646 3.801 6.058 5.55 9.862 3.904 17.536-7.589 36.07-11.861 55.197-12.747v28.213c0 4.142 3.358 7.5 7.5 7.5s7.5-3.358 7.5-7.5v-28.21c37.922 1.781 72.391 16.988 98.744 40.97l-19.899 19.9c-2.929 2.929-2.929 7.678 0 10.606 1.464 1.464 3.384 2.197 5.303 2.197s3.839-.732 5.303-2.197l19.899-19.899c23.982 26.353 39.189 60.822 40.97 98.744h-28.211c-4.142 0-7.5 3.358-7.5 7.5s3.358 7.5 7.5 7.5h28.211c-1.781 37.922-16.988 72.391-40.97 98.744l-19.899-19.899c-2.929-2.93-7.678-2.929-10.606 0-2.929 2.929-2.929 7.678 0 10.606l19.899 19.899c-26.353 23.982-60.822 39.189-98.744 40.97v-28.211c0-4.142-3.358-7.5-7.5-7.5s-7.5 3.358-7.5 7.5v28.211c-37.922-1.781-72.391-16.988-98.744-40.97l19.899-19.899c2.929-2.929 2.929-7.678 0-10.606-2.929-2.929-7.678-2.929-10.606 0l-19.899 19.899c-23.982-26.353-39.189-60.822-40.97-98.744h28.211c4.142 0 7.5-3.358 7.5-7.5s-3.358-7.5-7.5-7.5h-28.198c1.75-37.013 16.386-71.834 40.907-98.793l19.949 19.949c1.464 1.465 3.384 2.197 5.303 2.197s3.839-.732 5.303-2.197c2.929-2.929 2.929-7.678 0-10.606l-19.945-19.947c5.596-5.088 11.581-9.821 17.954-14.126 3.432-2.319 4.335-6.981 2.016-10.414-2.319-3.432-6.98-4.333-10.414-2.016-47.757 32.265-76.269 85.892-76.269 143.452 0 47.291 19.08 90.204 49.938 121.465.222.301.461.594.733.867.273.273.565.511.867.733 22.013 21.729 49.805 37.61 80.836 45.107v53.6c-49.498 2.933-88.871 44.126-88.871 94.348v3.116c0 4.142 3.358 7.5 7.5 7.5h85.027c4.142 0 7.5-3.358 7.5-7.5s-3.358-7.5-7.5-7.5h-77.408c2.285-41.816 37.026-75.138 79.402-75.138h69.957c42.377 0 77.117 33.322 79.402 75.138h-121.353c-4.142 0-7.5 3.358-7.5 7.5s3.358 7.5 7.5 7.5h128.973c4.142 0 7.5-3.358 7.5-7.5v-3.116c0-50.221-39.373-91.414-88.871-94.347zm-40.629-48.77c8.707 0 17.264-.654 25.629-1.901v50.497h-51.258v-50.497c8.365 1.248 16.922 1.901 25.629 1.901z"/><path d="m249.87 151.942c-16.03 0-29.071 13.042-29.071 29.071s13.041 29.071 29.071 29.071c5.884 0 11.362-1.762 15.944-4.78l44.063 42.007c1.452 1.385 3.315 2.072 5.174 2.072 1.979 0 3.956-.779 5.429-2.325 2.858-2.998 2.745-7.746-.253-10.604l-44.416-42.344c1.997-3.939 3.13-8.387 3.13-13.098 0-16.029-13.042-29.07-29.071-29.07zm-14.072 29.071c0-7.759 6.313-14.071 14.071-14.071 7.759 0 14.071 6.313 14.071 14.071s-6.313 14.071-14.071 14.071-14.071-6.312-14.071-14.071z"/></g></svg>