<?xml version="1.0" encoding="iso-8859-1"?>
<!-- Generator: Adobe Illustrator 19.0.0, SVG Export Plug-In . SVG Version: 6.00 Build 0)  -->
<svg version="1.1" id="Layer_1" xmlns="http://www.w3.org/2000/svg" xmlns:xlink="http://www.w3.org/1999/xlink" x="0px" y="0px"
	 viewBox="0 0 494.933 494.933" style="enable-background:new 0 0 494.933 494.933;" xml:space="preserve">
<g>
	<g>
		<path d="M25.6,268.8H8.533C3.82,268.8,0,272.621,0,277.333s3.82,8.533,8.533,8.533H25.6c4.713,0,8.533-3.82,8.533-8.533
			S30.313,268.8,25.6,268.8z"/>
	</g>
</g>
<g>
	<g>
		<path d="M85.333,268.8H51.2c-4.713,0-8.533,3.82-8.533,8.533s3.82,8.533,8.533,8.533h34.133c4.713,0,8.533-3.82,8.533-8.533
			S90.046,268.8,85.333,268.8z"/>
	</g>
</g>
<g>
	<g>
		<path d="M452.267,268.8H409.6c-4.713,0-8.533,3.82-8.533,8.533s3.82,8.533,8.533,8.533h42.667c4.713,0,8.533-3.82,8.533-8.533
			S456.98,268.8,452.267,268.8z"/>
	</g>
</g>
<g>
	<g>
		<path d="M486.4,268.8h-8.533c-4.713,0-8.533,3.82-8.533,8.533s3.82,8.533,8.533,8.533h8.533c4.713,0,8.533-3.82,8.533-8.533
			S491.113,268.8,486.4,268.8z"/>
	</g>
</g>
<g>
	<g>
		<path d="M247.467,64c-4.713,0-8.533,3.82-8.533,8.533V115.2c0,4.713,3.82,8.533,8.533,8.533S256,119.913,256,115.2V72.533
			C256,67.82,252.18,64,247.467,64z"/>
	</g>
</g>
<g>
	<g>
		<path d="M247.467,29.867c-4.713,0-8.533,3.82-8.533,8.533v8.533c0,4.713,3.82,8.533,8.533,8.533S256,51.646,256,46.933V38.4
			C256,33.687,252.18,29.867,247.467,29.867z"/>
	</g>
</g>
<g>
	<g>
		<path d="M103.361,210.33c-0.912-0.611-1.934-1.04-3.009-1.264l-28.843-12.032c-4.251-2.035-9.346-0.238-11.381,4.013
			c-2.035,4.251-0.238,9.347,4.013,11.381c0.314,0.151,0.638,0.282,0.969,0.393l28.757,11.691c3.916,2.622,9.216,1.573,11.838-2.344
			C108.327,218.252,107.278,212.952,103.361,210.33z"/>
	</g>
</g>
<g>
	<g>
		<path d="M45.909,186.624l-6.485-2.645c-4.406-1.767-9.411,0.372-11.179,4.779c-1.767,4.406,0.372,9.411,4.779,11.179l6.485,2.645
			c1.011,0.368,2.082,0.542,3.157,0.512c4.712,0.06,8.581-3.712,8.641-8.425C51.352,191.127,49.204,187.925,45.909,186.624z"/>
	</g>
</g>
<g>
	<g>
		<path d="M326.743,79.648c-4.085-1.371-8.552,0.518-10.413,4.405l-16.043,39.68c-1.803,4.354,0.266,9.346,4.62,11.149
			c0.024,0.01,0.049,0.02,0.073,0.03c4.359,1.758,9.319-0.341,11.093-4.693l16.043-39.765
			C333.617,85.986,331.211,81.148,326.743,79.648z"/>
	</g>
</g>
<g>
	<g>
		<path d="M339.543,48.245c-4.085-1.371-8.552,0.518-10.413,4.405l-4.267,10.24c-1.787,4.361,0.3,9.345,4.661,11.131
			c0.039,0.016,0.078,0.032,0.118,0.047c4.359,1.758,9.319-0.341,11.093-4.693l4.181-10.325
			C346.417,54.583,344.011,49.745,339.543,48.245z"/>
	</g>
</g>
<g>
	<g>
		<path d="M418.217,208.928c-1.5-4.468-6.338-6.874-10.805-5.374c-0.331,0.111-0.654,0.242-0.969,0.393l-11.861,5.12
			c-4.614,0.96-7.576,5.478-6.617,10.092c0.96,4.614,5.478,7.576,10.092,6.617c1.075-0.224,2.097-0.653,3.009-1.264l11.776-4.779
			C417.31,218.233,419.716,213.396,418.217,208.928z"/>
	</g>
</g>
<g>
	<g>
		<path d="M477.95,184.608c-1.5-4.468-6.338-6.874-10.805-5.374c-0.331,0.111-0.654,0.242-0.969,0.393l-34.133,13.653
			c-4.555,1.211-7.265,5.885-6.053,10.44c1.088,4.089,5.007,6.763,9.211,6.285c1.133-0.094,2.235-0.413,3.243-0.939l34.133-13.653
			C477.044,193.913,479.45,189.076,477.95,184.608z"/>
	</g>
</g>
<g>
	<g>
		<path d="M194.645,123.733l-4.779-11.861c-1.791-4.383-6.796-6.484-11.179-4.693c-4.383,1.791-6.484,6.796-4.693,11.179
			l5.205,11.861c2.622,3.916,7.922,4.965,11.838,2.343C193.926,130.628,195.353,127.136,194.645,123.733z"/>
	</g>
</g>
<g>
	<g>
		<path d="M178.517,84.053l-12.629-31.488c-2.035-4.251-7.13-6.048-11.381-4.013c-3.887,1.861-5.777,6.327-4.405,10.413
			l12.629,31.488c2.035,4.251,7.13,6.047,11.381,4.013C177.999,92.605,179.889,88.139,178.517,84.053z"/>
	</g>
</g>
<g>
	<g>
		<path d="M401.671,120.491c-2.789-1.768-6.348-1.768-9.138,0l-36.181,36.181c-3.347,3.317-3.372,8.72-0.054,12.068
			c1.553,1.567,3.652,2.471,5.857,2.524c2.268,0.013,4.448-0.877,6.059-2.475l36.096-36.523
			C406.833,128.286,405.651,123.014,401.671,120.491z"/>
	</g>
</g>
<g>
	<g>
		<path d="M138.837,156.672L102.4,120.491c-3.98-2.523-9.253-1.342-11.776,2.638c-1.768,2.789-1.768,6.348,0,9.138l36.181,36.437
			c3.58,3.065,8.966,2.649,12.032-0.931C141.573,164.578,141.573,159.867,138.837,156.672z"/>
	</g>
</g>
<g>
	<g>
		<path d="M276.659,144.376c-73.662-16.122-146.446,30.522-162.568,104.184c-4.21,19.234-4.21,39.151,0,58.385
			c2.003,9.214,11.096,15.059,20.309,13.056c9.214-2.003,15.059-11.096,13.056-20.309c-12.038-55.258,22.999-109.812,78.257-121.85
			c55.258-12.038,109.812,22.999,121.85,78.257c3.129,14.363,3.129,29.23,0,43.593c-2.011,9.187,3.79,18.27,12.971,20.309
			c9.21,2.005,18.302-3.835,20.307-13.045c0.001-0.004,0.002-0.007,0.002-0.011C396.965,233.283,350.321,160.498,276.659,144.376z"
			/>
	</g>
</g>
<g>
	<g>
		<path d="M469.333,337.067H256v-73.216l32.341,32.427c3.323,3.346,8.729,3.365,12.075,0.043c3.346-3.323,3.365-8.729,0.043-12.075
			l-46.933-46.933c-3.328-3.309-8.704-3.309-12.032,0l-47.189,47.189c-3.58,3.065-3.996,8.452-0.931,12.032
			s8.452,3.996,12.032,0.931c0.334-0.286,0.645-0.597,0.931-0.931l32.597-32.768v73.301H25.6c-9.426,0-17.067,7.641-17.067,17.067
			S16.174,371.2,25.6,371.2h213.333v34.645c0,4.713,3.82,8.533,8.533,8.533s8.533-3.82,8.533-8.533V371.2h213.333
			c9.426,0,17.067-7.641,17.067-17.067S478.759,337.067,469.333,337.067z"/>
	</g>
</g>
<g>
	<g>
		<path d="M247.467,430.933c-4.713,0-8.533,3.821-8.533,8.533v17.067c0,4.713,3.82,8.533,8.533,8.533s8.533-3.82,8.533-8.533
			v-17.067C256,434.754,252.18,430.933,247.467,430.933z"/>
	</g>
</g>
<g>
</g>
<g>
</g>
<g>
</g>
<g>
</g>
<g>
</g>
<g>
</g>
<g>
</g>
<g>
</g>
<g>
</g>
<g>
</g>
<g>
</g>
<g>
</g>
<g>
</g>
<g>
</g>
<g>
</g>
</svg>
