<?xml version="1.0" encoding="iso-8859-1"?>
<!-- Generator: Adobe Illustrator 19.0.0, SVG Export Plug-In . SVG Version: 6.00 Build 0)  -->
<svg version="1.1" id="Layer_1" xmlns="http://www.w3.org/2000/svg" xmlns:xlink="http://www.w3.org/1999/xlink" x="0px" y="0px"
	 viewBox="0 0 486.4 486.4" style="enable-background:new 0 0 486.4 486.4;" xml:space="preserve">
<g>
	<g>
		<path d="M247.467,230.4c-4.713,0-8.533,3.82-8.533,8.533V256c0,4.713,3.82,8.533,8.533,8.533S256,260.713,256,256v-17.067
			C256,234.22,252.18,230.4,247.467,230.4z"/>
	</g>
</g>
<g>
	<g>
		<path d="M25.6,264.533H8.533c-4.713,0-8.533,3.82-8.533,8.533s3.82,8.533,8.533,8.533H25.6c4.713,0,8.533-3.82,8.533-8.533
			S30.313,264.533,25.6,264.533z"/>
	</g>
</g>
<g>
	<g>
		<path d="M85.333,264.533H51.2c-4.713,0-8.533,3.82-8.533,8.533s3.82,8.533,8.533,8.533h34.133c4.713,0,8.533-3.82,8.533-8.533
			S90.046,264.533,85.333,264.533z"/>
	</g>
</g>
<g>
	<g>
		<path d="M452.267,264.533H409.6c-4.713,0-8.533,3.82-8.533,8.533s3.82,8.533,8.533,8.533h42.667c4.713,0,8.533-3.82,8.533-8.533
			S456.98,264.533,452.267,264.533z"/>
	</g>
</g>
<g>
	<g>
		<path d="M247.467,59.733c-4.713,0-8.533,3.82-8.533,8.533v42.667c0,4.713,3.82,8.533,8.533,8.533s8.533-3.82,8.533-8.533V68.267
			C256,63.554,252.18,59.733,247.467,59.733z"/>
	</g>
</g>
<g>
	<g>
		<path d="M247.467,25.6c-4.713,0-8.533,3.82-8.533,8.533v8.533c0,4.713,3.82,8.533,8.533,8.533S256,47.379,256,42.667v-8.533
			C256,29.421,252.18,25.6,247.467,25.6z"/>
	</g>
</g>
<g>
	<g>
		<path d="M103.361,206.064c-0.912-0.611-1.934-1.04-3.009-1.264l-28.843-12.032c-4.251-2.035-9.346-0.238-11.381,4.013
			c-2.035,4.251-0.238,9.347,4.013,11.381c0.314,0.151,0.638,0.282,0.969,0.393l28.757,11.691c3.916,2.622,9.216,1.573,11.838-2.344
			C108.327,213.986,107.278,208.686,103.361,206.064z"/>
	</g>
</g>
<g>
	<g>
		<path d="M45.909,182.357l-6.485-2.645c-4.406-1.767-9.411,0.372-11.179,4.779c-1.767,4.406,0.372,9.411,4.779,11.179l6.485,2.645
			c1.011,0.368,2.082,0.542,3.157,0.512c4.712,0.06,8.581-3.712,8.641-8.425C51.352,186.86,49.204,183.659,45.909,182.357z"/>
	</g>
</g>
<g>
	<g>
		<path d="M326.743,75.381c-4.085-1.371-8.552,0.518-10.413,4.405l-16.043,39.68c-1.803,4.354,0.266,9.346,4.62,11.149
			c0.024,0.01,0.049,0.02,0.073,0.03c4.359,1.758,9.319-0.341,11.093-4.693l16.043-39.765
			C333.617,81.719,331.211,76.881,326.743,75.381z"/>
	</g>
</g>
<g>
	<g>
		<path d="M339.543,43.979c-4.085-1.371-8.552,0.518-10.413,4.405l-4.267,10.24c-1.787,4.361,0.3,9.345,4.661,11.131
			c0.039,0.016,0.078,0.032,0.118,0.047c4.359,1.758,9.319-0.341,11.093-4.693l4.181-10.325
			C346.417,50.316,344.011,45.478,339.543,43.979z"/>
	</g>
</g>
<g>
	<g>
		<path d="M418.217,204.661c-1.5-4.468-6.338-6.874-10.805-5.374c-0.331,0.111-0.654,0.242-0.969,0.393l-11.861,5.12
			c-4.614,0.96-7.576,5.478-6.617,10.092c0.96,4.614,5.478,7.576,10.092,6.617c1.075-0.224,2.097-0.653,3.009-1.264l11.776-4.779
			C417.31,213.967,419.716,209.129,418.217,204.661z"/>
	</g>
</g>
<g>
	<g>
		<path d="M477.95,180.341c-1.5-4.468-6.338-6.874-10.805-5.374c-0.331,0.111-0.654,0.242-0.969,0.393l-34.133,13.653
			c-4.555,1.211-7.265,5.885-6.053,10.44c1.088,4.089,5.007,6.763,9.211,6.285c1.133-0.094,2.235-0.413,3.243-0.939l34.133-13.653
			C477.044,189.647,479.45,184.809,477.95,180.341z"/>
	</g>
</g>
<g>
	<g>
		<path d="M194.645,119.467l-4.779-11.861c-1.791-4.383-6.796-6.484-11.179-4.693c-4.383,1.791-6.484,6.796-4.693,11.179
			l5.205,11.861c2.622,3.916,7.922,4.965,11.838,2.343C193.926,126.362,195.353,122.87,194.645,119.467z"/>
	</g>
</g>
<g>
	<g>
		<path d="M178.517,79.787l-12.629-31.488c-2.035-4.251-7.13-6.048-11.381-4.013c-3.887,1.861-5.777,6.327-4.405,10.413
			l12.629,31.488c2.035,4.251,7.13,6.047,11.381,4.013C177.999,88.339,179.889,83.872,178.517,79.787z"/>
	</g>
</g>
<g>
	<g>
		<path d="M401.671,116.224c-2.789-1.768-6.348-1.768-9.138,0l-36.181,36.181c-3.347,3.317-3.372,8.72-0.054,12.068
			c1.553,1.567,3.652,2.471,5.857,2.524c2.268,0.013,4.448-0.877,6.059-2.475L404.309,128
			C406.833,124.02,405.651,118.747,401.671,116.224z"/>
	</g>
</g>
<g>
	<g>
		<path d="M138.837,152.405L102.4,116.224c-3.98-2.523-9.253-1.342-11.776,2.638c-1.768,2.789-1.768,6.348,0,9.138l36.181,36.437
			c3.58,3.065,8.966,2.649,12.032-0.931C141.573,160.312,141.573,155.6,138.837,152.405z"/>
	</g>
</g>
<g>
	<g>
		<path d="M276.659,140.109c-73.662-16.122-146.446,30.522-162.568,104.184c-4.21,19.234-4.21,39.151,0,58.385
			c2.003,9.214,11.096,15.059,20.309,13.056c9.214-2.003,15.059-11.096,13.056-20.309c-12.038-55.258,22.999-109.812,78.257-121.85
			c55.258-12.038,109.812,22.999,121.85,78.257c3.129,14.363,3.129,29.23,0,43.593c-2.011,9.187,3.79,18.27,12.971,20.309
			c9.21,2.005,18.302-3.835,20.307-13.045c0.001-0.004,0.002-0.007,0.002-0.011C396.965,229.016,350.321,156.231,276.659,140.109z"
			/>
	</g>
</g>
<g>
	<g>
		<path d="M469.333,332.8H256v-43.179c0-4.713-3.82-8.533-8.533-8.533s-8.533,3.82-8.533,8.533V332.8H25.6
			c-9.426,0-17.067,7.641-17.067,17.067s7.641,17.067,17.067,17.067h213.333v64.683l-32.341-32.427
			c-3.323-3.346-8.729-3.365-12.075-0.043c-3.346,3.323-3.365,8.729-0.043,12.075l46.933,46.933c1.582,1.66,3.766,2.613,6.059,2.645
			c2.581-0.058,4.997-1.282,6.571-3.328l46.336-46.336c3.065-3.58,2.649-8.966-0.931-12.032c-3.195-2.736-7.906-2.736-11.101,0
			L256,431.616v-64.683h213.333c9.426,0,17.067-7.641,17.067-17.067S478.759,332.8,469.333,332.8z"/>
	</g>
</g>
<g>
</g>
<g>
</g>
<g>
</g>
<g>
</g>
<g>
</g>
<g>
</g>
<g>
</g>
<g>
</g>
<g>
</g>
<g>
</g>
<g>
</g>
<g>
</g>
<g>
</g>
<g>
</g>
<g>
</g>
</svg>
