<svg xmlns="http://www.w3.org/2000/svg" xmlns:xlink="http://www.w3.org/1999/xlink" width="32" height="32" preserveAspectRatio="xMidYMid meet" viewBox="0 0 32 32" style="-ms-transform: rotate(360deg); -webkit-transform: rotate(360deg); transform: rotate(360deg);"><path d="M26 30h-4a2.006 2.006 0 0 1-2-2v-7a2.006 2.006 0 0 1-2-2v-6a2.946 2.946 0 0 1 3-3h6a2.946 2.946 0 0 1 3 3v6a2.006 2.006 0 0 1-2 2v7a2.006 2.006 0 0 1-2 2zm-5-18a.945.945 0 0 0-1 1v6h2v9h4v-9h2v-6a.945.945 0 0 0-1-1z" fill="#626262"/><path d="M24 9a4 4 0 1 1 4-4a4.012 4.012 0 0 1-4 4zm0-6a2 2 0 1 0 2 2a2.006 2.006 0 0 0-2-2z" fill="#626262"/><path d="M10 20.184V12H8v8.184a3 3 0 1 0 2 0z" fill="#626262"/><path d="M9 30a6.993 6.993 0 0 1-5-11.89V7a5 5 0 0 1 10 0v11.11A6.993 6.993 0 0 1 9 30zM9 4a3.003 3.003 0 0 0-3 3v11.983l-.332.299a5 5 0 1 0 6.664 0L12 18.983V7a3.003 3.003 0 0 0-3-3z" fill="#626262"/><rect x="0" y="0" width="32" height="32" fill="rgba(0, 0, 0, 0)" /></svg>