<?xml version="1.0" encoding="iso-8859-1"?>
<!-- Generator: Adobe Illustrator 19.0.0, SVG Export Plug-In . SVG Version: 6.00 Build 0)  -->
<svg version="1.1" id="Layer_1" xmlns="http://www.w3.org/2000/svg" xmlns:xlink="http://www.w3.org/1999/xlink" x="0px" y="0px"
	 viewBox="0 0 434.362 434.362" style="enable-background:new 0 0 434.362 434.362;" xml:space="preserve">
<g>
	<g>
		<path d="M102.4,268.381H59.733c-4.713,0-8.533,3.82-8.533,8.533s3.82,8.533,8.533,8.533H102.4c4.713,0,8.533-3.82,8.533-8.533
			S107.113,268.381,102.4,268.381z"/>
	</g>
</g>
<g>
	<g>
		<path d="M298.667,268.381H256c-4.713,0-8.533,3.82-8.533,8.533s3.82,8.533,8.533,8.533h42.667c4.713,0,8.533-3.82,8.533-8.533
			S303.379,268.381,298.667,268.381z"/>
	</g>
</g>
<g>
	<g>
		<path d="M102.4,200.114H59.733c-4.713,0-8.533,3.82-8.533,8.533s3.82,8.533,8.533,8.533H102.4c4.713,0,8.533-3.82,8.533-8.533
			S107.113,200.114,102.4,200.114z"/>
	</g>
</g>
<g>
	<g>
		<path d="M298.667,200.114H256c-4.713,0-8.533,3.82-8.533,8.533s3.82,8.533,8.533,8.533h42.667c4.713,0,8.533-3.82,8.533-8.533
			S303.379,200.114,298.667,200.114z"/>
	</g>
</g>
<g>
	<g>
		<path d="M102.4,165.981H59.733c-4.713,0-8.533,3.82-8.533,8.533s3.82,8.533,8.533,8.533H102.4c4.713,0,8.533-3.821,8.533-8.533
			S107.113,165.981,102.4,165.981z"/>
	</g>
</g>
<g>
	<g>
		<path d="M298.667,165.981H256c-4.713,0-8.533,3.82-8.533,8.533s3.82,8.533,8.533,8.533h42.667c4.713,0,8.533-3.821,8.533-8.533
			S303.379,165.981,298.667,165.981z"/>
	</g>
</g>
<g>
	<g>
		<path d="M102.4,97.714H59.733c-4.713,0-8.533,3.82-8.533,8.533s3.82,8.533,8.533,8.533H102.4c4.713,0,8.533-3.82,8.533-8.533
			S107.113,97.714,102.4,97.714z"/>
	</g>
</g>
<g>
	<g>
		<path d="M298.667,97.714H256c-4.713,0-8.533,3.82-8.533,8.533s3.82,8.533,8.533,8.533h42.667c4.713,0,8.533-3.82,8.533-8.533
			S303.379,97.714,298.667,97.714z"/>
	</g>
</g>
<g>
	<g>
		<path d="M102.4,63.581H59.733c-4.713,0-8.533,3.82-8.533,8.533s3.82,8.533,8.533,8.533H102.4c4.713,0,8.533-3.82,8.533-8.533
			S107.113,63.581,102.4,63.581z"/>
	</g>
</g>
<g>
	<g>
		<path d="M298.667,63.581H256c-4.713,0-8.533,3.82-8.533,8.533s3.82,8.533,8.533,8.533h42.667c4.713,0,8.533-3.82,8.533-8.533
			S303.379,63.581,298.667,63.581z"/>
	</g>
</g>
<g>
	<g>
		<path d="M102.4,234.248H8.533c-4.713,0-8.533,3.821-8.533,8.533c0,4.713,3.82,8.533,8.533,8.533H102.4
			c4.713,0,8.533-3.821,8.533-8.533C110.933,238.068,107.113,234.248,102.4,234.248z"/>
	</g>
</g>
<g>
	<g>
		<path d="M349.867,234.248H256c-4.713,0-8.533,3.821-8.533,8.533c0,4.713,3.82,8.533,8.533,8.533h93.867
			c4.713,0,8.533-3.821,8.533-8.533C358.4,238.068,354.579,234.248,349.867,234.248z"/>
	</g>
</g>
<g>
	<g>
		<path d="M102.4,131.848H8.533c-4.713,0-8.533,3.82-8.533,8.533s3.82,8.533,8.533,8.533H102.4c4.713,0,8.533-3.82,8.533-8.533
			S107.113,131.848,102.4,131.848z"/>
	</g>
</g>
<g>
	<g>
		<path d="M349.867,131.848H256c-4.713,0-8.533,3.82-8.533,8.533s3.82,8.533,8.533,8.533h93.867c4.713,0,8.533-3.82,8.533-8.533
			S354.579,131.848,349.867,131.848z"/>
	</g>
</g>
<g>
	<g>
		<path d="M230.4,296.541V55.048c0-28.277-22.923-51.2-51.2-51.2c-28.277,0-51.2,22.923-51.2,51.2v241.408
			c-31.621,28.27-34.337,76.821-6.067,108.442c11.036,12.344,25.765,20.79,41.992,24.081c5.03,1.006,10.145,1.52,15.275,1.536
			c42.415-0.043,76.765-34.463,76.722-76.878C255.9,331.846,246.622,311.09,230.4,296.541z M214.193,378.116
			c-2.218,3.19-4.862,6.062-7.857,8.537c-18.851,14.138-45.595,10.318-59.733-8.533c-14.138-18.851-10.318-45.595,8.533-59.733
			c4.362-3.187,6.957-8.251,6.997-13.653V55.048c0-9.426,7.641-17.067,17.067-17.067c9.426,0,17.067,7.641,17.067,17.067v249.685
			c-0.01,5.569,2.697,10.793,7.253,13.995C222.867,332.18,227.646,358.769,214.193,378.116z"/>
	</g>
</g>
<g>
	<g>
		<path d="M203.336,345.253c-2.578-7.29-8.312-13.025-15.603-15.603v-61.269c0-4.713-3.821-8.533-8.533-8.533
			c-4.713,0-8.533,3.82-8.533,8.533v61.269c-13.33,4.713-20.315,19.339-15.603,32.669s19.339,20.315,32.669,15.603
			C201.063,373.209,208.049,358.583,203.336,345.253z"/>
	</g>
</g>
<g>
	<g>
		<path d="M430.592,243.464c-2.64-1.524-5.893-1.524-8.533,0l-50.688,26.112c-4.218,2.102-5.933,7.226-3.831,11.444
			c0.827,1.659,2.172,3.004,3.831,3.831l50.688,25.088c4.232,2.074,9.344,0.324,11.418-3.908c0.575-1.174,0.873-2.464,0.87-3.772
			v-51.2C434.529,248.041,433.101,245.151,430.592,243.464z"/>
	</g>
</g>
<g>
</g>
<g>
</g>
<g>
</g>
<g>
</g>
<g>
</g>
<g>
</g>
<g>
</g>
<g>
</g>
<g>
</g>
<g>
</g>
<g>
</g>
<g>
</g>
<g>
</g>
<g>
</g>
<g>
</g>
</svg>
