<?xml version="1.0" encoding="iso-8859-1"?>
<!-- Generator: Adobe Illustrator 19.0.0, SVG Export Plug-In . SVG Version: 6.00 Build 0)  -->
<svg version="1.1" id="Layer_1" xmlns="http://www.w3.org/2000/svg" xmlns:xlink="http://www.w3.org/1999/xlink" x="0px" y="0px"
	 viewBox="0 0 435.201 435.201" style="enable-background:new 0 0 435.201 435.201;" xml:space="preserve">
<g>
	<g>
		<path d="M102.4,268.8H59.733c-4.713,0-8.533,3.82-8.533,8.533s3.82,8.533,8.533,8.533H102.4c4.713,0,8.533-3.82,8.533-8.533
			S107.113,268.8,102.4,268.8z"/>
	</g>
</g>
<g>
	<g>
		<path d="M298.667,268.8H256c-4.713,0-8.533,3.82-8.533,8.533s3.82,8.533,8.533,8.533h42.667c4.713,0,8.533-3.82,8.533-8.533
			S303.379,268.8,298.667,268.8z"/>
	</g>
</g>
<g>
	<g>
		<path d="M102.4,200.534H59.733c-4.713,0-8.533,3.82-8.533,8.533s3.82,8.533,8.533,8.533H102.4c4.713,0,8.533-3.82,8.533-8.533
			S107.113,200.534,102.4,200.534z"/>
	</g>
</g>
<g>
	<g>
		<path d="M298.667,200.534H256c-4.713,0-8.533,3.82-8.533,8.533s3.82,8.533,8.533,8.533h42.667c4.713,0,8.533-3.82,8.533-8.533
			S303.379,200.534,298.667,200.534z"/>
	</g>
</g>
<g>
	<g>
		<path d="M102.4,166.4H59.733c-4.713,0-8.533,3.82-8.533,8.533s3.82,8.533,8.533,8.533H102.4c4.713,0,8.533-3.821,8.533-8.533
			S107.113,166.4,102.4,166.4z"/>
	</g>
</g>
<g>
	<g>
		<path d="M298.667,166.4H256c-4.713,0-8.533,3.82-8.533,8.533s3.82,8.533,8.533,8.533h42.667c4.713,0,8.533-3.821,8.533-8.533
			S303.379,166.4,298.667,166.4z"/>
	</g>
</g>
<g>
	<g>
		<path d="M102.4,98.134H59.733c-4.713,0-8.533,3.82-8.533,8.533s3.82,8.533,8.533,8.533H102.4c4.713,0,8.533-3.82,8.533-8.533
			S107.113,98.134,102.4,98.134z"/>
	</g>
</g>
<g>
	<g>
		<path d="M298.667,98.134H256c-4.713,0-8.533,3.82-8.533,8.533s3.82,8.533,8.533,8.533h42.667c4.713,0,8.533-3.82,8.533-8.533
			S303.379,98.134,298.667,98.134z"/>
	</g>
</g>
<g>
	<g>
		<path d="M102.4,64H59.733c-4.713,0-8.533,3.82-8.533,8.533s3.82,8.533,8.533,8.533H102.4c4.713,0,8.533-3.82,8.533-8.533
			S107.113,64,102.4,64z"/>
	</g>
</g>
<g>
	<g>
		<path d="M298.667,64H256c-4.713,0-8.533,3.82-8.533,8.533s3.82,8.533,8.533,8.533h42.667c4.713,0,8.533-3.82,8.533-8.533
			S303.379,64,298.667,64z"/>
	</g>
</g>
<g>
	<g>
		<path d="M102.4,234.667H8.533C3.82,234.667,0,238.488,0,243.2c0,4.713,3.82,8.533,8.533,8.533H102.4
			c4.713,0,8.533-3.821,8.533-8.533C110.933,238.488,107.113,234.667,102.4,234.667z"/>
	</g>
</g>
<g>
	<g>
		<path d="M349.867,234.667H256c-4.713,0-8.533,3.821-8.533,8.533c0,4.713,3.82,8.533,8.533,8.533h93.867
			c4.713,0,8.533-3.821,8.533-8.533C358.4,238.488,354.579,234.667,349.867,234.667z"/>
	</g>
</g>
<g>
	<g>
		<path d="M102.4,132.267H8.533C3.82,132.267,0,136.087,0,140.8s3.82,8.533,8.533,8.533H102.4c4.713,0,8.533-3.82,8.533-8.533
			S107.113,132.267,102.4,132.267z"/>
	</g>
</g>
<g>
	<g>
		<path d="M349.867,132.267H256c-4.713,0-8.533,3.82-8.533,8.533s3.82,8.533,8.533,8.533h93.867c4.713,0,8.533-3.82,8.533-8.533
			S354.579,132.267,349.867,132.267z"/>
	</g>
</g>
<g>
	<g>
		<path d="M230.4,296.96V55.467c0-28.277-22.923-51.2-51.2-51.2c-28.277,0-51.2,22.923-51.2,51.2v241.408
			c-31.621,28.27-34.337,76.821-6.067,108.442c11.036,12.344,25.765,20.79,41.992,24.081c5.03,1.006,10.145,1.52,15.275,1.536
			c42.415-0.043,76.765-34.463,76.722-76.878C255.9,332.265,246.622,311.51,230.4,296.96z M214.193,378.535
			c-2.218,3.19-4.862,6.062-7.857,8.537c-18.851,14.138-45.595,10.318-59.733-8.533c-14.138-18.851-10.318-45.595,8.533-59.733
			c4.362-3.187,6.957-8.251,6.997-13.653V55.467c0-9.426,7.641-17.067,17.067-17.067c9.426,0,17.067,7.641,17.067,17.067v249.685
			c-0.01,5.569,2.697,10.793,7.253,13.995C222.867,332.599,227.646,359.188,214.193,378.535z"/>
	</g>
</g>
<g>
	<g>
		<path d="M203.336,345.672c-2.578-7.29-8.312-13.025-15.603-15.603V106.667c0-4.713-3.821-8.533-8.533-8.533
			c-4.713,0-8.533,3.82-8.533,8.533V330.07c-13.33,4.713-20.315,19.339-15.603,32.669s19.339,20.315,32.669,15.603
			C201.063,373.629,208.049,359.002,203.336,345.672z"/>
	</g>
</g>
<g>
	<g>
		<path d="M431.104,73.814c-2.64-1.524-5.893-1.524-8.533,0l-50.517,25.771c-4.218,2.102-5.933,7.226-3.831,11.444
			c0.827,1.659,2.172,3.004,3.831,3.831l50.688,25.088c4.184,2.168,9.334,0.534,11.503-3.651c0.645-1.244,0.973-2.628,0.956-4.029
			v-51.2C435.188,78.102,433.637,75.356,431.104,73.814z"/>
	</g>
</g>
<g>
</g>
<g>
</g>
<g>
</g>
<g>
</g>
<g>
</g>
<g>
</g>
<g>
</g>
<g>
</g>
<g>
</g>
<g>
</g>
<g>
</g>
<g>
</g>
<g>
</g>
<g>
</g>
<g>
</g>
</svg>
