<?xml version="1.0" encoding="iso-8859-1"?>
<!-- Generator: Adobe Illustrator 19.0.0, SVG Export Plug-In . SVG Version: 6.00 Build 0)  -->
<svg version="1.1" id="Layer_1" xmlns="http://www.w3.org/2000/svg" xmlns:xlink="http://www.w3.org/1999/xlink" x="0px" y="0px"
	 viewBox="0 0 503.589 503.589" style="enable-background:new 0 0 503.589 503.589;" xml:space="preserve">
<g>
	<g>
		<path d="M409.649,239.281c-4.713,0-8.533,3.82-8.533,8.533c0,1.963,0,3.925,0,5.973c0,4.713,3.82,8.533,8.533,8.533
			s8.533-3.82,8.533-8.533c0-2.133,0-4.267,0-6.4C417.955,242.842,414.2,239.275,409.649,239.281z"/>
	</g>
</g>
<g>
	<g>
		<path d="M331.418,311.721c-0.176-0.032-0.353-0.058-0.531-0.078c-4.665-0.659-8.982,2.588-9.643,7.253
			c0,2.816-0.853,5.547-1.365,8.533c-0.775,4.613,2.308,8.989,6.912,9.813h1.536c4.2,0.061,7.82-2.943,8.533-7.083
			c0.512-2.844,0.995-5.689,1.451-8.533C339.142,316.988,336.056,312.553,331.418,311.721z"/>
	</g>
</g>
<g>
	<g>
		<path d="M332.337,251.91c-4.713,0-8.533,3.82-8.533,8.533c0,4.096,0,8.249,0,12.459v4.608c0,4.713,3.82,8.533,8.533,8.533
			s8.533-3.82,8.533-8.533v-4.267c0-4.437,0-8.533,0-13.141C340.687,255.523,336.92,251.906,332.337,251.91z"/>
	</g>
</g>
<g>
	<g>
		<path d="M256.582,277.531c-0.177-0.012-0.355-0.019-0.533-0.021c-4.713,0-8.533,3.82-8.533,8.533c0,5.717,0,11.264-0.768,17.067
			c-0.014,4.459,3.406,8.177,7.851,8.533h0.597c4.489,0.011,8.219-3.458,8.533-7.936c0-5.717,0.597-11.52,0.768-17.067
			C264.827,281.939,261.283,277.861,256.582,277.531z"/>
	</g>
</g>
<g>
	<g>
		<path d="M496.689,211.633c-6.613-18.076-19.981-32.882-37.291-41.301c-38.737-18.737-81.787-26.752-124.672-23.211h-1.28
			c-68.949,9.899-114.091-5.12-157.611-19.712l-25.6-8.533c-3.452-1.981-7.298-3.175-11.264-3.499h-4.437
			c-14.933,1.109-25.6,13.909-32.597,31.573l-50.688,36.693V98.31c-0.031-1.503-0.261-2.995-0.683-4.437
			C67.091,84.8,73.133,64.05,64.06,47.525C54.988,31,34.238,24.959,17.713,34.031C1.188,43.103-4.853,63.854,4.219,80.379
			c3.124,5.689,7.805,10.37,13.494,13.494c-0.393,1.446-0.594,2.938-0.597,4.437v358.4c0,9.426,7.641,17.067,17.067,17.067
			s17.067-7.641,17.067-17.067V337.243l50.603,36.779c7.083,17.067,17.067,30.037,31.744,31.488
			c21.193,5.754,43.064,8.624,65.024,8.533c60.331,0,123.221-17.92,159.317-41.301c19.3-11.295,40.544-18.878,62.635-22.357
			l41.813-4.608c27.307-3.755,41.131-32.427,41.131-85.333C504.041,243.903,501.732,227.394,496.689,211.633z M34.182,81.243
			c-9.426,0-17.067-7.641-17.067-17.067S24.757,47.11,34.182,47.11s17.067,7.641,17.067,17.067S43.608,81.243,34.182,81.243z
			 M93.916,346.545l-42.667-30.72V204.891l42.667-30.891C82.815,230.98,82.815,289.566,93.916,346.545z M136.582,367.622
			c-7.253-13.312-17.067-50.176-17.067-107.179s9.813-93.867,17.067-107.179c7.253,13.312,17.067,50.176,17.067,107.179
			S143.836,354.31,136.582,367.622z M469.382,260.443c0,40.96-9.216,51.2-10.923,51.2l-41.813,4.181
			c-3.072,0.398-6.201,0.91-9.387,1.536c2.941-6.902,5.199-14.076,6.741-21.419c0.99-4.713-2.029-9.336-6.741-10.325
			s-9.336,2.029-10.325,6.741c-5.205,24.064-11.093,30.805-22.187,34.133c-12.084,4.479-23.761,9.989-34.901,16.469
			c-27.796,16.238-58.441,27.013-90.283,31.744c2.369-6.015,4.364-12.171,5.973-18.432c1.178-4.571-1.573-9.232-6.144-10.411
			s-9.232,1.573-10.411,6.144c-2.073,8.884-5.226,17.481-9.387,25.6c-20.018,2.26-40.227,2.26-60.245,0
			c17.237-37.205,18.432-100.096,18.432-117.163c0.207-32.519-3.46-64.946-10.923-96.597c17.552,5.966,35.447,10.867,53.589,14.677
			c10.055,23.374,15.53,48.461,16.128,73.899c0.314,4.478,4.044,7.947,8.533,7.936h0.939c4.683-0.319,8.229-4.361,7.936-9.045
			c-1.133-23.637-5.497-47.008-12.971-69.461c19.374,2.556,38.948,3.242,58.453,2.048c6.361,13.752,10.426,28.453,12.032,43.52
			c0.599,4.241,4.25,7.381,8.533,7.339h1.195c4.665-0.66,7.912-4.977,7.253-9.643c-1.867-14.601-5.476-28.925-10.752-42.667
			l10.411-1.28c36.311-2.721,72.708,4.012,105.643,19.541c9.624,4.544,17.138,12.608,20.992,22.528
			C468.347,235.302,469.904,247.872,469.382,260.443z"/>
	</g>
</g>
<g>
</g>
<g>
</g>
<g>
</g>
<g>
</g>
<g>
</g>
<g>
</g>
<g>
</g>
<g>
</g>
<g>
</g>
<g>
</g>
<g>
</g>
<g>
</g>
<g>
</g>
<g>
</g>
<g>
</g>
</svg>
